{
  "asset": {
    "version": "2.0",
    "generator": "THREE.GLTFExporter"
  },
  "scenes": [
    {
      "nodes": [
        0
      ]
    }
  ],
  "scene": 0,
  "nodes": [
    {
      "children": [
        11
      ],
      "matrix": [
        0.01,
        0,
        0,
        0,
        0,
        0.01,
        0,
        0,
        0,
        0,
        0.01,
        0,
        0,
        0,
        0,
        1
      ]
    },
    {
      "matrix": [
        1,
        0,
        0,
        0,
        0,
        1,
        2.220446049250313e-16,
        0,
        0,
        -2.220446049250313e-16,
        1,
        0,
        0,
        0,
        0,
        1
      ],
      "name": "Sphere 7",
      "mesh": 0
    },
    {
      "matrix": [
        0.9511195791780128,
        -1.8488927466117464e-32,
        -0.308822839350071,
        0,
        6.522059536955253e-17,
        1,
        2.00867867649226e-16,
        0,
        0.308822839350071,
        -2.1119097119504392e-16,
        0.9511195791780128,
        0,
        -47.56566254072659,
        -3.4315843941979237e-15,
        15.45502579336054,
        1
      ],
      "name": "Sphere 6",
      "mesh": 1
    },
    {
      "matrix": [
        0.5884331919288849,
        0,
        -0.8085458420129215,
        0,
        1.0564331867890325e-16,
        1,
        7.688374855954545e-17,
        0,
        0.8085458420129215,
        -1.3065841562662436e-16,
        0.5884331919288849,
        0,
        -29.390604983075036,
        -8.982524767364928e-15,
        40.4542387895113,
        1
      ],
      "name": "Sphere 5",
      "mesh": 2
    },
    {
      "matrix": [
        2.220446049250313e-16,
        2.8698592549372266e-42,
        -1,
        0,
        0,
        1,
        2.8698592549372266e-42,
        0,
        1,
        -6.372367644529809e-58,
        2.220446049250313e-16,
        0,
        -5.873076687594972e-14,
        -1.1102109544056583e-14,
        50.00000000000001,
        1
      ],
      "name": "Sphere 4",
      "mesh": 3
    },
    {
      "matrix": [
        -0.9511195791780358,
        8.464478974337779e-17,
        0.30882283935000043,
        0,
        1.164785548246759e-16,
        1,
        8.464478974337779e-17,
        0,
        -0.30882283935000043,
        1.164785548246759e-16,
        -0.9511195791780358,
        0,
        47.5656625407266,
        3.431825798587884e-15,
        -15.455025793360509,
        1
      ],
      "name": "Sphere 3",
      "mesh": 4
    },
    {
      "matrix": [
        -0.5884331919291748,
        2.3446372176258576e-17,
        0.8085458420127105,
        0,
        7.206228250081239e-17,
        1,
        2.3446372176258576e-17,
        0,
        -0.8085458420127105,
        7.206228250081239e-17,
        -0.5884331919291748,
        0,
        29.39060498307501,
        8.982766171754904e-15,
        -40.45423878951134,
        1
      ],
      "name": "Sphere 2",
      "mesh": 5
    },
    {
      "matrix": [
        0.0003077466390877248,
        -2.1029398094002378e-23,
        0.9999999526460019,
        0,
        0,
        1,
        2.1029399089828503e-23,
        0,
        -0.9999999526460019,
        -6.471726891929033e-27,
        0.0003077466390877248,
        0,
        -1.1102350948446552e-14,
        1.1102350948446552e-14,
        -50.000000000000014,
        1
      ],
      "name": "Sphere 1",
      "mesh": 6
    },
    {
      "name": "Point Light",
      "extensions": {
        "KHR_lights_punctual": {
          "light": 0
        }
      }
    },
    {
      "matrix": [
        2.220446049250313e-16,
        -2.220446049250313e-16,
        1,
        0,
        1,
        0,
        -2.220446049250313e-16,
        0,
        0,
        1,
        2.220446049250313e-16,
        0,
        -1.207021949837378e-19,
        1.207021949837378e-19,
        2.883977778811442e-16,
        1
      ],
      "name": "Ellipse",
      "mesh": 7
    },
    {
      "matrix": [
        1,
        -1.2037062152420224e-35,
        -1.1580525916890356e-19,
        0,
        -1.1580525858987715e-19,
        0.00010000001067311803,
        -0.999999994999999,
        0,
        1.1580527152913493e-23,
        0.999999994999999,
        0.00010000001067311803,
        0,
        -7.958078636774971e-13,
        193.71148348994475,
        0.019371150582030598,
        1
      ],
      "name": "Personal Camera",
      "camera": 0
    },
    {
      "name": "Scene 1",
      "children": [
        1,
        2,
        3,
        4,
        5,
        6,
        7,
        8,
        9,
        10
      ]
    }
  ],
  "bufferViews": [
    {
      "buffer": 0,
      "byteOffset": 0,
      "byteLength": 50700,
      "target": 34962,
      "byteStride": 12
    },
    {
      "buffer": 0,
      "byteOffset": 50700,
      "byteLength": 50700,
      "target": 34962,
      "byteStride": 12
    },
    {
      "buffer": 0,
      "byteOffset": 101400,
      "byteLength": 33800,
      "target": 34962,
      "byteStride": 8
    },
    {
      "buffer": 0,
      "byteOffset": 135200,
      "byteLength": 48384,
      "target": 34963
    },
    {
      "buffer": 0,
      "byteOffset": 183584,
      "byteLength": 5040,
      "target": 34962,
      "byteStride": 12
    },
    {
      "buffer": 0,
      "byteOffset": 188624,
      "byteLength": 5040,
      "target": 34962,
      "byteStride": 12
    },
    {
      "buffer": 0,
      "byteOffset": 193664,
      "byteLength": 3360,
      "target": 34962,
      "byteStride": 8
    },
    {
      "buffer": 0,
      "byteOffset": 197024,
      "byteLength": 2448,
      "target": 34963
    }
  ],
  "buffers": [
    {
      "byteLength": 199472,
      "uri": "data:application/octet-stream;base64,"
    }
  ],
  "accessors": [
    {
      "bufferView": 0,
      "componentType": 5126,
      "count": 4225,
      "max": [
        9.5,
        9.5,
        9.5
      ],
      "min": [
        -9.5,
        -9.5,
        -9.5
      ],
      "type": "VEC3"
    },
    {
      "bufferView": 1,
      "componentType": 5126,
      "count": 4225,
      "max": [
        1,
        1,
        1
      ],
      "min": [
        -1,
        -1,
        -1
      ],
      "type": "VEC3"
    },
    {
      "bufferView": 2,
      "componentType": 5126,
      "count": 4225,
      "max": [
        1.0078125,
        1
      ],
      "min": [
        -0.0078125,
        0
      ],
      "type": "VEC2"
    },
    {
      "bufferView": 3,
      "componentType": 5123,
      "count": 24192,
      "max": [
        4224
      ],
      "min": [
        0
      ],
      "type": "SCALAR"
    },
    {
      "bufferView": 4,
      "componentType": 5126,
      "count": 420,
      "max": [
        51.499977111816406,
        51.499977111816406,
        1.299038052558899
      ],
      "min": [
        -51.4988899230957,
        -51.499977111816406,
        -1.299038052558899
      ],
      "type": "VEC3"
    },
    {
      "bufferView": 5,
      "componentType": 5126,
      "count": 420,
      "max": [
        0.8660120964050293,
        0.8660120964050293,
        1
      ],
      "min": [
        -0.8660120964050293,
        -0.8660120964050293,
        -1
      ],
      "type": "VEC3"
    },
    {
      "bufferView": 6,
      "componentType": 5126,
      "count": 420,
      "max": [
        1,
        1
      ],
      "min": [
        0,
        0
      ],
      "type": "VEC2"
    },
    {
      "bufferView": 7,
      "componentType": 5123,
      "count": 1224,
      "max": [
        419
      ],
      "min": [
        0
      ],
      "type": "SCALAR"
    }
  ],
  "meshes": [
    {
      "primitives": [
        {
          "mode": 4,
          "attributes": {
            "POSITION": 0,
            "NORMAL": 1,
            "TEXCOORD_0": 2
          },
          "extras": {
            "parameters": {
              "width": 19,
              "widthSegments": 64,
              "heightSegments": 64,
              "phiStart": 0,
              "phiLength": 6.283185307179586,
              "thetaStart": 0,
              "thetaLength": 180,
              "depth": 19,
              "height": 19,
              "type": "SphereGeometry"
            },
            "type": "SphereGeometry"
          },
          "indices": 3
        }
      ]
    },
    {
      "primitives": [
        {
          "mode": 4,
          "attributes": {
            "POSITION": 0,
            "NORMAL": 1,
            "TEXCOORD_0": 2
          },
          "extras": {
            "parameters": {
              "width": 19,
              "widthSegments": 64,
              "heightSegments": 64,
              "phiStart": 0,
              "phiLength": 6.283185307179586,
              "thetaStart": 0,
              "thetaLength": 180,
              "depth": 19,
              "height": 19,
              "type": "SphereGeometry"
            },
            "type": "SphereGeometry"
          },
          "indices": 3
        }
      ]
    },
    {
      "primitives": [
        {
          "mode": 4,
          "attributes": {
            "POSITION": 0,
            "NORMAL": 1,
            "TEXCOORD_0": 2
          },
          "extras": {
            "parameters": {
              "width": 19,
              "widthSegments": 64,
              "heightSegments": 64,
              "phiStart": 0,
              "phiLength": 6.283185307179586,
              "thetaStart": 0,
              "thetaLength": 180,
              "depth": 19,
              "height": 19,
              "type": "SphereGeometry"
            },
            "type": "SphereGeometry"
          },
          "indices": 3
        }
      ]
    },
    {
      "primitives": [
        {
          "mode": 4,
          "attributes": {
            "POSITION": 0,
            "NORMAL": 1,
            "TEXCOORD_0": 2
          },
          "extras": {
            "parameters": {
              "width": 19,
              "widthSegments": 64,
              "heightSegments": 64,
              "phiStart": 0,
              "phiLength": 6.283185307179586,
              "thetaStart": 0,
              "thetaLength": 180,
              "depth": 19,
              "height": 19,
              "type": "SphereGeometry"
            },
            "type": "SphereGeometry"
          },
          "indices": 3
        }
      ]
    },
    {
      "primitives": [
        {
          "mode": 4,
          "attributes": {
            "POSITION": 0,
            "NORMAL": 1,
            "TEXCOORD_0": 2
          },
          "extras": {
            "parameters": {
              "width": 19,
              "widthSegments": 64,
              "heightSegments": 64,
              "phiStart": 0,
              "phiLength": 6.283185307179586,
              "thetaStart": 0,
              "thetaLength": 180,
              "depth": 19,
              "height": 19,
              "type": "SphereGeometry"
            },
            "type": "SphereGeometry"
          },
          "indices": 3
        }
      ]
    },
    {
      "primitives": [
        {
          "mode": 4,
          "attributes": {
            "POSITION": 0,
            "NORMAL": 1,
            "TEXCOORD_0": 2
          },
          "extras": {
            "parameters": {
              "width": 19,
              "widthSegments": 64,
              "heightSegments": 64,
              "phiStart": 0,
              "phiLength": 6.283185307179586,
              "thetaStart": 0,
              "thetaLength": 180,
              "depth": 19,
              "height": 19,
              "type": "SphereGeometry"
            },
            "type": "SphereGeometry"
          },
          "indices": 3
        }
      ]
    },
    {
      "primitives": [
        {
          "mode": 4,
          "attributes": {
            "POSITION": 0,
            "NORMAL": 1,
            "TEXCOORD_0": 2
          },
          "extras": {
            "parameters": {
              "width": 19,
              "widthSegments": 64,
              "heightSegments": 64,
              "phiStart": 0,
              "phiLength": 6.283185307179586,
              "thetaStart": 0,
              "thetaLength": 180,
              "depth": 19,
              "height": 19,
              "type": "SphereGeometry"
            },
            "type": "SphereGeometry"
          },
          "indices": 3
        }
      ]
    },
    {
      "primitives": [
        {
          "mode": 4,
          "attributes": {
            "POSITION": 4,
            "NORMAL": 5,
            "TEXCOORD_0": 6
          },
          "extras": {
            "path": {
              "points": [
                {
                  "id": "21b8063e-0129-49e0-a1a9-824e972cb4e2",
                  "fi": 0,
                  "data": {
                    "position": [
                      -50.000000000000014,
                      0,
                      0
                    ],
                    "roundness": 0,
                    "areControlsDirectionsMirrored": true,
                    "controlPrevious": {
                      "position": [
                        -50.000000000000014,
                        -27.61423749,
                        0
                      ]
                    },
                    "controlNext": {
                      "position": [
                        -50.000000000000014,
                        27.61423749,
                        0
                      ]
                    }
                  }
                },
                {
                  "id": "2caadce0-d0e0-4816-afbb-224e436bb1fa",
                  "fi": 1,
                  "data": {
                    "position": [
                      0,
                      50,
                      0
                    ],
                    "roundness": 0,
                    "areControlsDirectionsMirrored": true,
                    "controlPrevious": {
                      "position": [
                        -27.614237490000015,
                        50,
                        0
                      ]
                    },
                    "controlNext": {
                      "position": [
                        27.614237490000015,
                        50,
                        0
                      ]
                    }
                  }
                },
                {
                  "id": "f3bc8899-3789-420c-8aca-73b056674c17",
                  "fi": 2,
                  "data": {
                    "position": [
                      50.000000000000014,
                      0,
                      0
                    ],
                    "roundness": 0,
                    "areControlsDirectionsMirrored": true,
                    "controlPrevious": {
                      "position": [
                        50.000000000000014,
                        27.61423749,
                        0
                      ]
                    },
                    "controlNext": {
                      "position": [
                        50.000000000000014,
                        -27.61423749,
                        0
                      ]
                    }
                  }
                },
                {
                  "id": "d3e3cecd-be1d-4cc4-bb17-08b7bf8f9493",
                  "fi": 3,
                  "data": {
                    "position": [
                      0,
                      -50,
                      0
                    ],
                    "roundness": 0,
                    "areControlsDirectionsMirrored": true,
                    "controlPrevious": {
                      "position": [
                        27.614237490000015,
                        -50,
                        0
                      ]
                    },
                    "controlNext": {
                      "position": [
                        -27.614237490000015,
                        -50,
                        0
                      ]
                    }
                  }
                }
              ],
              "lastInsertionPlane": null,
              "subdivisions": 8,
              "isClosed": true,
              "roundness": 0
            },
            "parameters": {
              "width": 100,
              "height": 100,
              "depth": 0.01,
              "subdivisions": 12,
              "roundness": 0,
              "extrudeBevelSize": 0,
              "extrudeBevelSegments": 1,
              "spikes": 64,
              "angle": 360,
              "innerRadius": 0,
              "type": "PathGeometry",
              "path": {
                "points": [
                  {
                    "id": "21b8063e-0129-49e0-a1a9-824e972cb4e2",
                    "fi": 0,
                    "data": {
                      "position": [
                        -50.000000000000014,
                        0,
                        0
                      ],
                      "roundness": 0,
                      "areControlsDirectionsMirrored": true,
                      "controlPrevious": {
                        "position": [
                          -50.000000000000014,
                          -27.61423749,
                          0
                        ]
                      },
                      "controlNext": {
                        "position": [
                          -50.000000000000014,
                          27.61423749,
                          0
                        ]
                      }
                    }
                  },
                  {
                    "id": "2caadce0-d0e0-4816-afbb-224e436bb1fa",
                    "fi": 1,
                    "data": {
                      "position": [
                        0,
                        50,
                        0
                      ],
                      "roundness": 0,
                      "areControlsDirectionsMirrored": true,
                      "controlPrevious": {
                        "position": [
                          -27.614237490000015,
                          50,
                          0
                        ]
                      },
                      "controlNext": {
                        "position": [
                          27.614237490000015,
                          50,
                          0
                        ]
                      }
                    }
                  },
                  {
                    "id": "f3bc8899-3789-420c-8aca-73b056674c17",
                    "fi": 2,
                    "data": {
                      "position": [
                        50.000000000000014,
                        0,
                        0
                      ],
                      "roundness": 0,
                      "areControlsDirectionsMirrored": true,
                      "controlPrevious": {
                        "position": [
                          50.000000000000014,
                          27.61423749,
                          0
                        ]
                      },
                      "controlNext": {
                        "position": [
                          50.000000000000014,
                          -27.61423749,
                          0
                        ]
                      }
                    }
                  },
                  {
                    "id": "d3e3cecd-be1d-4cc4-bb17-08b7bf8f9493",
                    "fi": 3,
                    "data": {
                      "position": [
                        0,
                        -50,
                        0
                      ],
                      "roundness": 0,
                      "areControlsDirectionsMirrored": true,
                      "controlPrevious": {
                        "position": [
                          27.614237490000015,
                          -50,
                          0
                        ]
                      },
                      "controlNext": {
                        "position": [
                          -27.614237490000015,
                          -50,
                          0
                        ]
                      }
                    }
                  }
                ],
                "lastInsertionPlane": null,
                "subdivisions": 8,
                "isClosed": true,
                "roundness": 0
              },
              "extrusion": {
                "shape": {
                  "type": "Ellipse",
                  "width": 3,
                  "height": 3,
                  "spikes": 6,
                  "angle": 360,
                  "innerRadius": 0
                },
                "depth": 1,
                "offset": 0,
                "bevel": 50,
                "bevelSides": 6,
                "angle": 0,
                "twist": 0,
                "startScale": 1,
                "endScale": 1,
                "capType": "flat"
              }
            },
            "shapeData": {
              "points": [
                -25,
                0,
                -25,
                -13.807118744999999,
                -25,
                13.807118744999999,
                0,
                0,
                25,
                -13.807118744999999,
                25,
                13.807118744999999,
                25,
                0,
                25,
                0,
                25,
                13.807118744999999,
                25,
                -13.807118744999999,
                0,
                0,
                -25,
                13.807118744999999,
                -25,
                -13.807118744999999,
                -25,
                0
              ],
              "shapeHoles": [],
              "isClosed": true,
              "roundness": 0
            },
            "type": "PathGeometry"
          },
          "indices": 7
        }
      ]
    }
  ],
  "extensions": {
    "KHR_lights_punctual": {
      "lights": [
        {
          "name": "Point Light",
          "color": [
            1,
            1,
            1
          ],
          "intensity": 3.461,
          "type": "point",
          "range": 10000
        }
      ]
    }
  },
  "cameras": [
    {
      "type": "perspective",
      "perspective": {
        "aspectRatio": 2.1233974358974357,
        "yfov": 0.7853981633974483,
        "zfar": 100000,
        "znear": 70
      },
      "name": "Camera"
    }
  ],
  "extensionsUsed": [
    "KHR_lights_punctual"
  ]
}